<svg width="16" height="20" viewBox="0 0 16 20" fill="none" xmlns="http://www.w3.org/2000/svg">
<path d="M15 7.14287H14.2857V6.42857C14.2818 2.8798 11.4059 0.00393415 7.85712 0C4.30835 0.00393415 1.43249 2.8798 1.42856 6.42857V7.14287H0.714299C0.319796 7.14287 0 7.46266 0 7.85716V19.2857C0 19.6802 0.319796 20 0.714299 20H15C15.3945 20 15.7143 19.6802 15.7143 19.2857V7.85712C15.7143 7.46266 15.3945 7.14287 15 7.14287ZM2.85715 6.42857C2.85715 3.66713 5.09573 1.42856 7.85717 1.42856C10.6186 1.42856 12.8571 3.66713 12.8571 6.42857V7.14287H2.85715V6.42857ZM14.2857 18.5714H1.42856V8.57142H14.2857V18.5714Z" fill="white"/>
<path d="M9.87759 12.142C9.57579 11.2852 8.76552 10.7126 7.85711 10.7144C6.6764 10.7121 5.71743 11.6675 5.71521 12.8482C5.7135 13.7566 6.28604 14.5669 7.14285 14.8687V16.4287C7.14285 16.8232 7.46265 17.143 7.85715 17.143C8.25165 17.143 8.57141 16.8231 8.57141 16.4286V14.8687C9.68506 14.4764 10.2699 13.2556 9.87759 12.142ZM7.85711 13.5715C7.4626 13.5715 7.14281 13.2517 7.14281 12.8572C7.14281 12.4627 7.4626 12.1429 7.85711 12.1429C8.25161 12.1429 8.57141 12.4627 8.57141 12.8572C8.57141 13.2517 8.25161 13.5715 7.85711 13.5715Z" fill="white"/>
</svg>
