<svg width="30" height="30" viewBox="0 0 30 30" fill="none" xmlns="http://www.w3.org/2000/svg">
<g clip-path="url(#clip0)">
<path d="M15 30C23.2843 30 30 23.2843 30 15C30 6.71573 23.2843 0 15 0C6.71573 0 0 6.71573 0 15C0 23.2843 6.71573 30 15 30Z" fill="#1C51BA"/>
<path d="M15.5 20.5L18.879 29.4792C25.267 27.7757 29.9988 21.9555 29.9988 14.9997C29.9988 14.8577 30.5 16 30 15L15.5 9V20.5Z" fill="#223D70"/>
<path d="M13.6095 22H16.4025V12.576H13.6095V22ZM14.9965 11.189C15.9465 11.189 16.6115 10.581 16.6115 9.726C16.6115 8.871 15.9465 8.282 14.9965 8.282C14.0655 8.282 13.3815 8.871 13.3815 9.726C13.3815 10.581 14.0655 11.189 14.9965 11.189Z" fill="white"/>
</g>
<defs>
<clipPath id="clip0">
<rect width="30" height="30" fill="white"/>
</clipPath>
</defs>
</svg>
