<svg width="54" height="54" viewBox="0 0 54 54" fill="none" xmlns="http://www.w3.org/2000/svg">
<g clip-path="url(#clip0)">
<path d="M16.875 27C20.5978 27 23.625 23.9728 23.625 20.25C23.625 16.5273 20.5978 13.5 16.875 13.5C13.1523 13.5 10.125 16.5273 10.125 20.25C10.125 23.9728 13.1523 27 16.875 27ZM16.875 16.8751C18.7356 16.8751 20.25 18.3895 20.25 20.25C20.25 22.1106 18.7356 23.625 16.875 23.625C15.0145 23.625 13.5001 22.1106 13.5001 20.25C13.5001 18.3895 15.0145 16.8751 16.875 16.8751Z" fill="#8796B2"/>
<path d="M52.3125 6.75H1.68753C0.754718 6.75 0 7.50472 0 8.43753V45.5624C0 46.4951 0.754718 47.25 1.68753 47.25H52.3125C53.2452 47.25 54 46.4953 54 45.5624V8.43753C54 7.50472 53.2452 6.75 52.3125 6.75ZM3.37495 10.125H50.6249V39.8012L34.9431 24.1194C34.2839 23.4601 33.2161 23.4601 32.5569 24.1194L12.8012 43.875H3.37495C3.37495 43.875 3.37495 10.1251 3.37495 10.125ZM49.9264 43.8749H17.5738L33.7501 27.6986C33.7501 27.6987 49.9264 43.8749 49.9264 43.8749Z" fill="#8796B2"/>
</g>
<defs>
<clipPath id="clip0">
<rect width="54" height="54" fill="white"/>
</clipPath>
</defs>
</svg>
