<svg width="15" height="16" viewBox="0 0 15 16" fill="none" xmlns="http://www.w3.org/2000/svg">
<path d="M10.2663 1.94362C9.92889 1.79621 9.53589 1.95025 9.38848 2.28766C9.24107 2.62506 9.3951 3.01807 9.73251 3.16547C11.9017 4.11311 13.3334 6.25853 13.3334 8.66661C13.3334 11.9802 10.6468 14.6667 7.33337 14.6667C4.01953 14.6667 1.33332 11.9804 1.33332 8.66661C1.33332 6.25906 2.76458 4.11364 4.9331 3.16538C5.27045 3.01788 5.42436 2.62481 5.27682 2.28747C5.12932 1.95012 4.73626 1.79621 4.39891 1.94375C1.74923 3.10235 0 5.72443 0 8.66658C0 12.7168 3.28318 16 7.3334 16C11.3832 16 14.6668 12.7166 14.6668 8.66658C14.6668 5.72375 12.9169 3.10154 10.2663 1.94362Z" fill="#242223"/>
<path d="M7.33317 7.3334C7.70136 7.3334 7.99983 7.03493 7.99983 6.66674V0.666693C7.99986 0.298471 7.70136 0 7.33317 0C6.96497 0 6.6665 0.298471 6.6665 0.666661V6.66671C6.6665 7.0349 6.96497 7.3334 7.33317 7.3334Z" fill="#242223"/>
</svg>
