<?xml version="1.0" encoding="UTF-8"?>
<svg width="450px" height="450px" viewBox="0 0 450 450" version="1.1" xmlns="http://www.w3.org/2000/svg" xmlns:xlink="http://www.w3.org/1999/xlink">
    <!-- Generator: Sketch 53.2 (72643) - https://sketchapp.com -->
    <title>Logo</title>
    <desc>Created with Sketch.</desc>
    <g id="Logo" stroke="none" stroke-width="1" fill="none" fill-rule="evenodd">
        <g id="Logo-Blue-Copy">
            <rect id="Rectangle" x="0" y="0" width="450" height="450"></rect>
            <g id="Boundless_logo_-[Converted]" transform="translate(170.000000, 83.000000)" fill="#FFFFFF">
                <path d="M64.3898743,136 L5.94045815,136 C2.65963371,136 0,133.329945 0,130.036266 C0,126.742586 2.65963371,124.072532 5.94045815,124.072532 L64.3898743,124.072532 C74.335324,124.072532 82.4207149,115.736762 82.4207149,105.5 C82.4207149,95.2632377 74.3269454,86.9274683 64.3898743,86.9274683 L5.94045815,86.9274683 C2.65963371,86.9274683 0,84.2574136 0,80.9637341 C0,77.6700547 2.65963371,75 5.94045815,75 L64.3898743,75 C80.7114716,75 94,88.702289 94,105.525234 C94,122.34818 80.7114716,136 64.3898743,136 Z" id="Path"></path>
                <path d="M64.2185398,161 L5.92465123,161 C2.65255671,161 0,158.307877 0,154.986976 C0,151.666074 2.65255671,148.973951 5.92465123,148.973951 L64.2185398,148.973951 C87.5076836,148.973951 106.451526,129.24716 106.451526,105 C106.451526,80.7528396 87.5076836,61.0260488 64.2185398,61.0260488 L5.92465123,61.0260488 C2.65255671,61.0260488 0,58.333926 0,55.0130244 C0,51.6921227 2.65255671,49 5.92465123,49 L64.2185398,49 C93.8752213,49 118,74.1207027 118,104.974557 C118,135.828411 93.866865,161 64.2185398,161 Z" id="Path"></path>
                <path d="M64.0545869,111.999998 L5.94122215,111.999998 C2.65997576,111.999998 0,109.313707 0,105.999999 C0,102.686291 2.65997576,100 5.94122215,100 L64.0629666,100 C67.3442129,100.002337 70.0023125,102.690523 69.9999985,106.004231 C69.9976845,109.317938 67.3358331,112.002335 64.0545869,111.999998 Z" id="Path"></path>
                <path d="M64.0584221,37 L5.94157788,37 C2.66013503,37 0,34.3137085 0,31 C0,27.6862915 2.66013503,25 5.94157788,25 L64.0584221,25 C66.1811434,25 68.1426188,26.1435935 69.2039795,28 C70.2653402,29.8564065 70.2653402,32.1435935 69.2039795,34 C68.1426188,35.8564065 66.1811434,37 64.0584221,37 Z" id="Path"></path>
                <path d="M64.0545865,11.9999985 L5.94122212,11.9999985 C2.65997575,11.9999985 0,9.31370734 0,5.99999925 C0,2.68629117 2.65997575,0 5.94122212,0 L64.0629663,0 C66.1855605,0.00151170188 68.1461199,1.14650197 69.2061206,3.00366405 C70.2661214,4.86082613 70.2645242,7.14801292 69.2019308,9.0036633 C68.1393373,10.8593137 66.1771808,12.0015102 64.0545865,11.9999985 Z" id="Path"></path>
            </g>
            <path d="M69.682,298.32 L69.682,298.472 C73.634,298.814 74.964,301.284 74.964,305.464 C74.964,310.86 72.494,312.304 66.376,312.304 C61.588,312.304 59.08,312.266 55.926,312 L55.926,285.78 C58.738,285.514 61.018,285.476 65.198,285.476 C71.81,285.476 74.166,286.92 74.166,292.316 C74.166,296.078 72.874,298.016 69.682,298.32 Z M64.97,289.314 L60.6,289.314 L60.6,296.686 L65.35,296.686 C68.542,296.686 69.606,295.926 69.606,292.924 C69.606,289.998 68.466,289.314 64.97,289.314 Z M60.6,308.428 L65.578,308.466 C69.112,308.466 70.214,307.744 70.214,304.59 C70.214,301.094 69.036,300.182 65.426,300.144 L60.6,300.144 L60.6,308.428 Z M106.870001,285.286 C114.888001,285.286 117.700001,288.478 117.700001,298.89 C117.700001,309.302 114.888001,312.494 106.870001,312.494 C98.8900008,312.494 96.0780008,309.302 96.0780008,298.89 C96.0780008,288.478 98.8900008,285.286 106.870001,285.286 Z M106.870001,289.352 C102.462001,289.352 101.094001,291.594 101.094001,298.89 C101.094001,306.186 102.462001,308.428 106.870001,308.428 C111.316001,308.428 112.684001,306.186 112.684001,298.89 C112.684001,291.594 111.316001,289.352 106.870001,289.352 Z M159.676002,285.78 L159.676002,301.74 C159.676002,309.568 157.054002,312.494 149.872002,312.494 C142.386002,312.494 139.650002,309.568 139.650002,301.74 L139.650002,285.78 L144.400002,285.78 L144.400002,301.74 C144.400002,306.794 145.730002,308.428 149.682002,308.428 C153.558002,308.428 154.888002,306.794 154.888002,301.74 L154.888002,285.78 L159.676002,285.78 Z M203.856002,285.78 L203.856002,310.252 C203.856002,311.392 203.248002,312 202.108002,312 L198.346002,312 C197.320002,312 196.788002,311.544 196.370002,310.556 L188.998002,294.482 C188.504002,293.418 187.706002,291.784 187.440002,290.568 L186.984002,290.568 C187.174002,291.898 187.212002,293.228 187.212002,294.52 L187.212002,312 L182.538002,312 L182.538002,287.528 C182.538002,286.388 183.184002,285.78 184.324002,285.78 L188.010002,285.78 C189.036002,285.78 189.530002,286.236 189.986002,287.224 L197.130002,302.842 C197.624002,303.982 198.384002,305.578 198.954002,306.984 L199.410002,306.984 C199.296002,305.54 199.220002,304.134 199.220002,302.728 L199.220002,285.78 L203.856002,285.78 Z M236.712003,285.438 C244.578003,285.438 247.428003,288.63 247.428003,298.89 C247.428003,309.15 244.578003,312.342 236.712003,312.342 C232.912003,312.342 229.796003,312.19 226.908003,312 L226.908003,285.78 C229.796003,285.59 232.874003,285.438 236.712003,285.438 Z M236.712003,308.352 C241.044003,308.352 242.412003,306.11 242.412003,298.89 C242.412003,291.67 241.044003,289.39 236.712003,289.39 C234.774003,289.39 233.178003,289.428 231.658003,289.428 L231.658003,308.276 C233.140003,308.314 234.812003,308.352 236.712003,308.352 Z M274.280004,285.78 L274.280004,305.882 C274.280004,307.478 274.850004,308.048 276.522004,308.048 L285.642004,308.048 L285.832004,311.734 C282.526004,312.038 278.954004,312.076 275.420004,312.076 C271.050004,312.076 269.530004,309.796 269.530004,306.642 L269.530004,285.78 L274.280004,285.78 Z M323.324005,308.162 L323.552005,311.772 C320.094005,312.076 315.838005,312.076 312.000005,312.076 C308.542005,312.076 306.414005,310.176 306.376005,307.098 L306.376005,290.682 C306.414005,287.604 308.580005,285.704 312.000005,285.704 C315.838005,285.704 320.094005,285.704 323.552005,286.008 L323.324005,289.656 L313.064005,289.656 C311.696005,289.656 311.164005,290.226 311.164005,291.86 L311.164005,296.458 L321.918005,296.458 L321.918005,300.106 L311.164005,300.106 L311.164005,305.958 C311.164005,307.592 311.696005,308.162 313.064005,308.162 L323.324005,308.162 Z M353.292005,285.324 C355.800005,285.324 358.726005,285.476 361.538005,286.198 L361.234005,289.58 C359.068005,289.504 356.028005,289.428 353.444005,289.428 C350.252005,289.428 349.074005,289.618 349.074005,292.43 C349.074005,294.748 349.948005,295.28 352.000005,295.926 L357.054005,297.484 C361.196005,298.814 362.450005,301.284 362.450005,305.122 C362.450005,311.088 359.866005,312.456 353.140005,312.456 C351.544005,312.456 348.428005,312.38 344.628005,311.62 L344.932005,308.124 C349.910005,308.238 351.430005,308.276 353.254005,308.276 C356.674005,308.276 357.624005,307.782 357.624005,305.084 C357.624005,302.69 356.750005,302.234 354.850005,301.626 L349.568005,299.954 C345.692005,298.7 344.286005,296.268 344.286005,292.354 C344.286005,286.35 347.022005,285.324 353.292005,285.324 Z M392.152006,285.324 C394.660006,285.324 397.586006,285.476 400.398006,286.198 L400.094006,289.58 C397.928006,289.504 394.888006,289.428 392.304006,289.428 C389.112006,289.428 387.934006,289.618 387.934006,292.43 C387.934006,294.748 388.808006,295.28 390.860006,295.926 L395.914006,297.484 C400.056006,298.814 401.310006,301.284 401.310006,305.122 C401.310006,311.088 398.726006,312.456 392.000006,312.456 C390.404006,312.456 387.288006,312.38 383.488006,311.62 L383.792006,308.124 C388.770006,308.238 390.290006,308.276 392.114006,308.276 C395.534006,308.276 396.484006,307.782 396.484006,305.084 C396.484006,302.69 395.610006,302.234 393.710006,301.626 L388.428006,299.954 C384.552006,298.7 383.146006,296.268 383.146006,292.354 C383.146006,286.35 385.882006,285.324 392.152006,285.324 Z" id="BOUNDLESS" fill="#FFFFFF" fill-rule="nonzero"></path>
            <path d="M176.326,334.622 C180.682,334.622 182.244,336.536 182.244,342.41 C182.244,348.284 180.682,350.198 176.326,350.198 C174.236,350.198 172.498,350.11 170.914,350 L170.914,334.82 C172.498,334.71 174.236,334.622 176.326,334.622 Z M176.326,348.504 C179.23,348.504 180.22,347.008 180.22,342.41 C180.22,337.812 179.23,336.294 176.326,336.294 C174.984,336.294 173.884,336.316 172.85,336.338 L172.85,348.46 C173.84,348.482 175.006,348.504 176.326,348.504 Z M194.218,350 L192.282,350 L192.282,334.82 L194.218,334.82 L194.218,350 Z M215.212,341.222 L215.212,350 L213.804,350 L213.584,348.394 C212.704,349.274 211.142,350.286 209.052,350.286 C205.642,350.286 204.256,347.822 204.256,342.366 C204.256,336.338 205.906,334.534 210.592,334.534 C212.132,334.534 213.518,334.666 214.816,334.996 L214.618,336.448 C213.232,336.316 211.824,336.272 210.702,336.272 C207.424,336.272 206.302,337.196 206.302,342.498 C206.302,346.964 207.138,348.592 209.58,348.592 C211.12,348.592 212.264,347.888 213.32,347.118 L213.32,341.222 L215.212,341.222 Z M227.318001,350 L225.382001,350 L225.382001,334.82 L227.318001,334.82 L227.318001,350 Z M248.246001,336.536 L243.340001,336.536 L243.340001,350 L241.404001,350 L241.404001,336.536 L236.520001,336.536 L236.520001,334.82 L248.246001,334.82 L248.246001,336.536 Z M264.202001,345.248 L257.954001,345.248 L256.458001,350 L254.456001,350 L259.340001,335.348 C259.428001,335.018 259.714001,334.82 260.066001,334.82 L262.090001,334.82 C262.442001,334.82 262.728001,335.018 262.816001,335.348 L267.700001,350 L265.698001,350 L264.202001,345.248 Z M263.674001,343.576 L261.760001,337.548 C261.628001,337.152 261.496001,336.712 261.386001,336.316 L260.770001,336.316 C260.660001,336.712 260.528001,337.152 260.396001,337.548 L258.482001,343.576 L263.674001,343.576 Z M278.464001,334.82 L278.464001,346.92 C278.464001,347.932 278.926001,348.372 279.938001,348.372 L285.416001,348.372 L285.504001,349.868 C283.590001,350.022 281.588001,350.022 279.630001,350.022 C277.386001,350.022 276.550001,348.812 276.550001,347.162 L276.550001,334.82 L278.464001,334.82 Z" id="DIGITAL" fill="#FFFFFF" fill-rule="nonzero"></path>
        </g>
    </g>
</svg>