<svg width="60" height="48" viewBox="0 0 60 48" fill="none" xmlns="http://www.w3.org/2000/svg">
<path d="M56.1903 0.666992H3.80958C1.70577 0.666992 0 2.37266 0 4.47647V43.5242C0 45.6279 1.70577 47.3335 3.80958 47.3335H56.1903C58.2942 47.3335 60 45.6279 60 43.5241V4.47647C60 2.37266 58.2943 0.666992 56.1903 0.666992ZM56.1903 4.47647V32.1821L48.6827 25.3564C47.5543 24.3307 45.819 24.3717 44.7409 25.4508L37.1426 33.0478L22.161 15.1526C21.0285 13.8002 18.9542 13.7869 17.8048 15.1231L3.80958 31.3879V4.47647H56.1903ZM40 14.4765C40 11.5831 42.3446 9.23834 45.2379 9.23834C48.1314 9.23834 50.476 11.5831 50.476 14.4765C50.476 17.3698 48.1315 19.7145 45.2379 19.7145C42.3447 19.7146 40 17.3698 40 14.4765Z" fill="#8796B2"/>
</svg>
