<svg width="13" height="17" viewBox="0 0 13 17" fill="none" xmlns="http://www.w3.org/2000/svg">
<path d="M12.3635 16.2729V13.3639C12.3635 11.3556 10.7355 9.72754 8.72721 9.72754H3.63634C1.62804 9.72754 0 11.3556 0 13.3639V16.2729C0 16.6746 0.325609 17.0002 0.727268 17.0002C1.12893 17.0002 1.45454 16.6746 1.45454 16.2729V13.3639C1.45454 12.1589 2.43136 11.1821 3.63634 11.1821H8.72721C9.93219 11.1821 10.909 12.1589 10.909 13.3639V16.2729C10.909 16.6746 11.2346 17.0002 11.6363 17.0002C12.0379 17.0002 12.3635 16.6746 12.3635 16.2729Z" fill="#1C51BA"/>
<path d="M5.81798 8.27268C3.80968 8.27268 2.18164 6.64463 2.18164 4.63634C2.18164 2.62804 3.80968 1 5.81798 1C7.82627 1 9.45432 2.62804 9.45432 4.63634C9.45432 6.64463 7.82627 8.27268 5.81798 8.27268Z" stroke="#1C51BA" stroke-width="1.5"/>
</svg>
