<svg width="21" height="23" viewBox="0 0 21 23" fill="none" xmlns="http://www.w3.org/2000/svg">
<path d="M6.83786 2.6001C5.96463 2.6013 5.1275 2.94872 4.51003 3.56619C3.89256 4.18366 3.54514 5.02078 3.54395 5.89402V6.7175C3.54395 7.5911 3.89098 8.42892 4.50871 9.04665C5.12644 9.66438 5.96426 10.0114 6.83786 10.0114C7.71147 10.0114 8.54929 9.66438 9.16702 9.04665C9.78475 8.42892 10.1318 7.5911 10.1318 6.7175V5.89402C10.1306 5.02078 9.78316 4.18366 9.16569 3.56619C8.54822 2.94872 7.7111 2.6013 6.83786 2.6001ZM9.3083 6.7175C9.3083 7.3727 9.04803 8.00106 8.58473 8.46436C8.12143 8.92766 7.49307 9.18794 6.83786 9.18794C6.18266 9.18794 5.5543 8.92766 5.091 8.46436C4.6277 8.00106 4.36743 7.3727 4.36743 6.7175V5.89402C4.36743 5.23882 4.6277 4.61045 5.091 4.14715C5.5543 3.68386 6.18266 3.42358 6.83786 3.42358C7.49307 3.42358 8.12143 3.68386 8.58473 4.14715C9.04803 4.61045 9.3083 5.23882 9.3083 5.89402V6.7175Z" fill="white" stroke="white" stroke-width="0.4"/>
<path d="M15 7.00049C15.7954 6.99981 16.558 6.72867 17.1204 6.24658C17.6829 5.76449 17.9992 5.11084 18 4.42906V3.57192C18 2.88993 17.6839 2.23588 17.1213 1.75364C16.5587 1.27141 15.7956 1.00049 15 1.00049C14.2044 1.00049 13.4413 1.27141 12.8787 1.75364C12.3161 2.23588 12 2.88993 12 3.57192V4.42906C12.0008 5.11084 12.3171 5.76449 12.8796 6.24658C13.442 6.72867 14.2046 6.99981 15 7.00049ZM13 3.57192C13 3.11726 13.2107 2.68122 13.5858 2.35973C13.9609 2.03824 14.4696 1.85763 15 1.85763C15.5304 1.85763 16.0391 2.03824 16.4142 2.35973C16.7893 2.68122 17 3.11726 17 3.57192V4.42906C17 4.88372 16.7893 5.31975 16.4142 5.64124C16.0391 5.96273 15.5304 6.14335 15 6.14335C14.4696 6.14335 13.9609 5.96273 13.5858 5.64124C13.2107 5.31975 13 4.88372 13 4.42906V3.57192Z" fill="white" stroke="white" stroke-width="0.2"/>
<path d="M11.8652 10.5356L9.81884 10.0251C9.71574 9.99933 9.60671 10.0141 9.51415 10.0662L6.83784 11.5979L4.16153 10.0662C4.06897 10.0141 3.95993 9.99933 3.85684 10.0251L1.81049 10.5356C1.36493 10.6468 0.969305 10.9037 0.686546 11.2655C0.403788 11.6274 0.250127 12.0734 0.25 12.5326V21.6896C0.25 21.7988 0.293379 21.9036 0.370595 21.9808C0.447812 22.058 0.55254 22.1014 0.66174 22.1014H13.0139C13.1231 22.1014 13.2279 22.058 13.3051 21.9808C13.3823 21.9036 13.4257 21.7988 13.4257 21.6896V12.5326C13.4255 12.0734 13.2719 11.6274 12.9891 11.2655C12.7064 10.9037 12.3108 10.6468 11.8652 10.5356ZM12.6022 21.2779H1.07348V12.5326C1.07346 12.2573 1.16542 11.9898 1.33476 11.7728C1.50409 11.5557 1.74109 11.4014 2.00813 11.3344L3.8939 10.865L6.63197 12.4296C6.69512 12.4641 6.7659 12.4821 6.83784 12.4821C6.90977 12.4821 6.98056 12.4641 7.04371 12.4296L9.78178 10.865L11.6675 11.3344C11.9346 11.4014 12.1716 11.5557 12.3409 11.7728C12.5103 11.9898 12.6022 12.2573 12.6022 12.5326V21.2779Z" fill="white" stroke="white" stroke-width="0.4"/>
<path d="M20 9.50054V17.5005C20 17.6331 19.9473 17.7603 19.8536 17.854C19.7598 17.9478 19.6326 18.0005 19.5 18.0005H14.5004C14.3678 18.0005 14.2406 17.9478 14.1469 17.854C14.0531 17.7603 14.0004 17.6331 14.0004 17.5005C14.0004 17.3679 14.0531 17.2407 14.1469 17.1469C14.2406 17.0532 14.3678 17.0005 14.5004 17.0005H19.0001V9.50054C19.0001 9.36793 18.9474 9.24075 18.8536 9.14698C18.7599 9.05322 18.6327 9.00054 18.5001 9.00054H17.0952L14.6854 9.96553C14.6243 9.98983 14.5591 10.0019 14.4934 10.0009C14.4277 10 14.3628 9.98615 14.3024 9.96015C14.2421 9.93415 14.1874 9.89652 14.1416 9.8494C14.0958 9.80228 14.0597 9.7466 14.0354 9.68553C14.0112 9.62447 13.9991 9.55922 14 9.4935C14.001 9.42779 14.0148 9.3629 14.0408 9.30255C14.0668 9.24219 14.1045 9.18754 14.1516 9.14173C14.1987 9.09592 14.2544 9.05983 14.3154 9.03554L16.8152 8.03554C16.8739 8.01148 16.9368 7.99957 17.0002 8.00054H18.5001C18.8975 8.00173 19.2784 8.16015 19.5594 8.44119C19.8404 8.72224 19.9988 9.10308 20 9.50054Z" fill="white" stroke="white" stroke-width="0.2"/>
</svg>
