<svg width="20" height="21" viewBox="0 0 20 21" fill="none" xmlns="http://www.w3.org/2000/svg">
<path d="M19.6023 4.15471C19.529 3.96983 19.3676 3.83424 19.1729 3.79401C18.9779 3.7537 18.7761 3.81416 18.6355 3.95479L15.5889 7.00143L13.9509 6.64924L13.5987 5.01127L16.6454 1.96459C16.786 1.82397 16.8464 1.62202 16.8062 1.42729C16.7659 1.23252 16.6303 1.07116 16.4455 0.997797C14.3538 0.168344 11.9743 0.66014 10.3835 2.25084C9.61769 3.01662 9.09184 3.97842 8.86277 5.03233C8.66684 5.93397 8.69434 6.86557 8.94055 7.74889L0.809922 15.8796C0.287617 16.4018 0 17.0962 0 17.8349C0 18.5735 0.287617 19.2679 0.809961 19.7902C1.33223 20.3125 2.02664 20.6001 2.76527 20.6001C3.50387 20.6001 4.19832 20.3125 4.72059 19.7902L12.8512 11.6596C13.7346 11.9058 14.6661 11.9333 15.5678 11.7373C16.6217 11.5083 17.5835 10.9824 18.3493 10.2166C19.94 8.62588 20.4318 6.24647 19.6023 4.15471ZM17.5138 9.38123C16.3089 10.5861 14.4913 10.9985 12.883 10.4316C12.6685 10.3561 12.4298 10.4103 12.2689 10.5711L3.88516 18.9548C3.58602 19.254 3.18824 19.4188 2.7652 19.4188C2.34211 19.4188 1.94441 19.254 1.64523 18.9548C1.34609 18.6556 1.18133 18.2579 1.18133 17.8349C1.18133 17.4118 1.34609 17.0141 1.64527 16.7149L10.029 8.33116C10.1898 8.17037 10.244 7.93159 10.1685 7.71713C9.60164 6.10889 10.0139 4.29116 11.2188 3.08627C12.0704 2.23471 13.2079 1.78166 14.3671 1.78166C14.6103 1.78166 14.8546 1.80159 15.0972 1.84202L12.5359 4.40334C12.3941 4.5451 12.3339 4.74913 12.376 4.94518L12.876 7.27069C12.9248 7.4978 13.1022 7.67518 13.3293 7.72401L15.6548 8.22401C15.851 8.26616 16.0549 8.20596 16.1967 8.06416L18.758 5.50284C18.991 6.90217 18.544 8.35104 17.5138 9.38123Z" fill="white"/>
</svg>
