<svg width="18" height="18" viewBox="0 0 18 18" fill="none" xmlns="http://www.w3.org/2000/svg">
<path d="M8.72428 12.0664C8.20964 12.0664 7.79297 12.4953 7.79297 13.01C7.79297 13.5124 8.19737 13.9536 8.72428 13.9536C9.2512 13.9536 9.66787 13.5125 9.66787 13.01C9.66787 12.4953 9.239 12.0664 8.72428 12.0664Z" fill="#FFFFFF"/>
<path d="M8.88384 4.92188C7.22949 4.92188 6.46973 5.9022 6.46973 6.56395C6.46973 7.0419 6.87409 7.26247 7.20498 7.26247C7.86669 7.26247 7.59712 6.31888 8.84706 6.31888C9.4598 6.31888 9.94998 6.58849 9.94998 7.15218C9.94998 7.81396 9.26373 8.19382 8.85933 8.53695C8.50397 8.8433 8.03829 9.34575 8.03829 10.3996C8.03829 11.0368 8.20982 11.2207 8.71227 11.2207C9.31274 11.2207 9.43526 10.9511 9.43526 10.7182C9.43526 10.081 9.44757 9.71338 10.1215 9.18646C10.4524 8.92911 11.494 8.09581 11.494 6.94388C11.494 5.79195 10.4524 4.92188 8.88384 4.92188Z" fill="#FFFFFF"/>
<path d="M9 0C4.02595 0 0 4.02528 0 9V17.2969C0 17.6852 0.314789 18 0.703125 18H9C13.974 18 18 13.9747 18 9C18 4.02595 13.9747 0 9 0ZM9 16.5938H1.40625V9C1.40625 4.80315 4.80259 1.40625 9 1.40625C13.1968 1.40625 16.5938 4.80259 16.5938 9C16.5938 13.1968 13.1974 16.5938 9 16.5938Z" fill="#FFFFFF"/>
</svg>
