<svg xmlns="http://www.w3.org/2000/svg" width="16" height="16" viewBox="0 0 16 16">
    <path fill="#9AA9C4" fill-rule="nonzero" d="M14.954 0c.394 0 .713.32.713.712v14.243a.712.712 0 0 1-.713.712H.712A.712.712 0 0 1 0 14.955V7.833c0-.393.319-.711.712-.711h3.383V.712c0-.393.318-.712.712-.712h10.147zM5.52 1.424v5.698h1.774l3.578-1.981a.715.715 0 0 1 .69 0l2.682 1.484v-5.2H5.519zM1.424 8.545v5.697h5.341V8.545H1.424zm12.819 5.697V8.253l-3.027-1.675-3.027 1.675v5.99h6.054zM3.383 9.436c.098 0 .178.08.177.178v1.068c0 .098-.079.178-.178.178H2.314a.178.178 0 0 1-.178-.178V9.614c0-.099.08-.178.178-.178h1.068zm2.492 0c.098 0 .178.08.178.178v1.068c0 .098-.08.178-.178.178H4.807a.178.178 0 0 1-.178-.178V9.614c0-.099.08-.178.178-.178h1.068zm-2.493 2.492c.099 0 .179.08.178.178v1.069c0 .098-.079.177-.178.177H2.314a.178.178 0 0 1-.178-.177v-1.069c0-.098.08-.178.178-.178h1.068zm2.493 0c.098 0 .178.08.178.178v1.069c0 .098-.08.177-.178.177H4.807a.177.177 0 0 1-.178-.177v-1.069c0-.098.08-.178.178-.178h1.068zm4.629-2.492c.098 0 .178.08.178.178v1.068c0 .098-.08.178-.178.178H9.436a.178.178 0 0 1-.178-.178V9.614c0-.099.08-.178.178-.178h1.068zm1.424 1.424a.178.178 0 0 1-.178-.178V9.614c0-.098.08-.178.178-.178h1.068c.099 0 .178.08.178.178v1.068a.177.177 0 0 1-.178.178h-1.068zm-1.424 1.068c.098 0 .178.08.178.178v1.069c0 .098-.08.177-.178.177H9.436a.177.177 0 0 1-.178-.177v-1.069c0-.098.08-.178.178-.178h1.068zm1.424 1.424a.177.177 0 0 1-.178-.177v-1.069c0-.098.08-.178.178-.178h1.068c.099 0 .178.08.178.178v1.069a.177.177 0 0 1-.178.177h-1.068zM6.943 3.984a.178.178 0 0 1-.178-.179V2.737c0-.098.08-.178.178-.178h1.068c.099 0 .178.08.178.178v1.069c0 .098-.08.178-.178.178H6.943zm2.493 0a.177.177 0 0 1-.178-.179V2.737c0-.098.08-.178.178-.178h1.068c.098 0 .178.08.178.178v1.069c0 .098-.08.178-.178.178H9.436zM8.01 6.476H6.943a.178.178 0 0 1-.178-.178V5.23c0-.099.08-.178.178-.178h1.068c.099 0 .178.08.178.178v1.068c0 .098-.08.178-.178.178zm3.917-2.492a.178.178 0 0 1-.178-.179V2.737c0-.098.08-.178.178-.178h1.068c.099 0 .178.08.178.178v1.069a.177.177 0 0 1-.178.178h-1.068z"/>
</svg>
