<svg width="14" height="14" viewBox="0 0 14 14" fill="none" xmlns="http://www.w3.org/2000/svg">
<path d="M3.69068 7.45639H5.22529V13.7742C5.22529 13.8989 5.32635 14 5.45109 14H8.0531C8.17784 14 8.2789 13.8989 8.2789 13.7742V7.48617H10.0431C10.1578 7.48617 10.2543 7.40009 10.2674 7.28615L10.5354 4.96027C10.5427 4.89628 10.5225 4.83219 10.4796 4.78417C10.4368 4.73613 10.3755 4.70862 10.3111 4.70862H8.27901V3.25062C8.27901 2.81113 8.51564 2.58825 8.98246 2.58825C9.04898 2.58825 10.3111 2.58825 10.3111 2.58825C10.4358 2.58825 10.5369 2.48713 10.5369 2.36245V0.227473C10.5369 0.10273 10.4358 0.00166797 10.3111 0.00166797H8.48002C8.46711 0.00103906 8.43843 0 8.39615 0C8.07845 0 6.97411 0.062371 6.10177 0.864883C5.13522 1.75421 5.26959 2.819 5.30169 3.00363V4.70857H3.69065C3.56591 4.70857 3.46484 4.80963 3.46484 4.93437V7.23056C3.46487 7.35528 3.56593 7.45639 3.69068 7.45639Z" fill="#385C8E"/>
</svg>
