<svg width="14" height="14" viewBox="0 0 14 14" fill="none" xmlns="http://www.w3.org/2000/svg">
<g clip-path="url(#clip0)">
<path d="M3.1027 8.46086L2.61537 10.2801L0.83423 10.3178C0.30193 9.33047 0 8.20087 0 7.00048C0 5.83971 0.282297 4.74509 0.782687 3.78125H0.78307L2.36879 4.07197L3.06343 5.64817C2.91804 6.07203 2.8388 6.52703 2.8388 7.00048C2.83886 7.51433 2.93193 8.00665 3.1027 8.46086Z" fill="#B73939"/>
<path d="M13.8781 5.69238C13.9585 6.11583 14.0004 6.55314 14.0004 7.00007C14.0004 7.50123 13.9477 7.99008 13.8473 8.46162C13.5066 10.0662 12.6162 11.4674 11.3827 12.4589L11.3824 12.4585L9.38506 12.3566L9.10238 10.592C9.92083 10.112 10.5605 9.36085 10.8974 8.46162H7.1543V5.69238H10.952H13.8781Z" fill="#B73939"/>
<path d="M11.3817 12.458L11.3821 12.4584C10.1825 13.4226 8.65859 13.9996 6.99975 13.9996C4.33398 13.9996 2.0163 12.5096 0.833984 10.3169L3.10245 8.45996C3.69359 10.0376 5.21552 11.1607 6.99975 11.1607C7.76666 11.1607 8.48515 10.9534 9.10167 10.5915L11.3817 12.458Z" fill="#B73939"/>
<path d="M11.4686 1.61153L9.2009 3.46806C8.56283 3.06923 7.80858 2.83883 7.00052 2.83883C5.1759 2.83883 3.6255 4.01343 3.06397 5.64769L0.783586 3.78077H0.783203C1.94821 1.53461 4.29513 0 7.00052 0C8.69897 0 10.2563 0.605008 11.4686 1.61153Z" fill="#B73939"/>
</g>
<defs>
<clipPath id="clip0">
<rect width="14" height="14" fill="white"/>
</clipPath>
</defs>
</svg>
