<svg width="14" height="14" viewBox="0 0 14 14" fill="none" xmlns="http://www.w3.org/2000/svg">
<g clip-path="url(#clip0)">
<path d="M3.18162 4.6582H0.173828V13.6906H3.18162V4.6582Z" fill="#197896"/>
<path d="M13.0522 5.48187C12.4204 4.79218 11.5848 4.44727 10.5458 4.44727C10.163 4.44727 9.81501 4.49435 9.50202 4.5886C9.18913 4.68277 8.92486 4.81491 8.70908 4.98506C8.49343 5.15522 8.32168 5.31318 8.19417 5.45895C8.07292 5.59741 7.95436 5.75869 7.83866 5.94114V4.65675H4.83984L4.84904 5.09431C4.8552 5.38607 4.85823 6.28531 4.85823 7.79218C4.85823 9.29917 4.85217 11.2648 4.83997 13.6893H7.83866V8.64887C7.83866 8.33904 7.8719 8.093 7.93887 7.91055C8.06657 7.6005 8.2593 7.34093 8.51769 7.13137C8.77606 6.92157 9.09648 6.81676 9.47942 6.81676C10.0018 6.81676 10.3863 6.99751 10.6324 7.35906C10.8785 7.72057 11.0015 8.22038 11.0015 8.85842V13.689H14.0002V8.5123C14 7.18143 13.6842 6.17134 13.0522 5.48187Z" fill="#197896"/>
<path d="M1.69528 0.30957C1.191 0.30957 0.782403 0.457029 0.469384 0.751659C0.156398 1.04635 0 1.4184 0 1.86815C0 2.31161 0.151896 2.68238 0.455721 2.98005C0.75945 3.27774 1.16055 3.42667 1.65879 3.42667H1.67702C2.18749 3.42667 2.59922 3.27787 2.91211 2.98005C3.225 2.68238 3.3784 2.31174 3.37237 1.86815C3.3663 1.41843 3.21124 1.04635 2.90751 0.751659C2.60382 0.456901 2.19959 0.30957 1.69528 0.30957Z" fill="#197896"/>
</g>
<defs>
<clipPath id="clip0">
<rect width="14" height="14" fill="white"/>
</clipPath>
</defs>
</svg>
