<svg width="14" height="14" viewBox="0 0 14 14" fill="none" xmlns="http://www.w3.org/2000/svg">
<g clip-path="url(#clip0)">
<path d="M13.7773 2.53148C13.4663 2.66941 13.1434 2.77823 12.812 2.85701C13.1771 2.51008 13.4516 2.07614 13.6065 1.59179C13.6507 1.45351 13.5005 1.33394 13.3757 1.40798C12.9147 1.68139 12.4182 1.88649 11.8999 2.01767C11.8698 2.02528 11.8388 2.02914 11.8077 2.02914C11.7133 2.02914 11.6215 1.99408 11.5493 1.93046C10.9978 1.44443 10.2886 1.17676 9.5522 1.17676C9.23356 1.17676 8.91185 1.22642 8.59598 1.32438C7.61731 1.62793 6.86217 2.43522 6.62525 3.43124C6.53637 3.80483 6.51231 4.17876 6.55368 4.54262C6.55842 4.58444 6.53866 4.61362 6.52647 4.62731C6.50507 4.6513 6.47473 4.66506 6.44322 4.66506C6.4397 4.66506 6.43609 4.66489 6.4325 4.66455C4.29022 4.46551 2.3584 3.43342 0.992896 1.75843C0.923263 1.67299 0.789733 1.68347 0.734232 1.77867C0.466831 2.23742 0.325519 2.76212 0.325519 3.29604C0.325519 4.11428 0.654258 4.88539 1.22528 5.44753C0.985147 5.3906 0.752733 5.30093 0.536839 5.18102C0.43239 5.12299 0.303878 5.19757 0.30241 5.31704C0.28746 6.5326 0.999142 7.61422 2.06527 8.10127C2.0438 8.10178 2.02233 8.10202 2.00082 8.10202C1.83183 8.10202 1.66072 8.08571 1.4923 8.05352C1.37468 8.03106 1.27586 8.14264 1.31238 8.25668C1.65843 9.33704 2.58863 10.1334 3.70179 10.3142C2.77794 10.9343 1.70209 11.2615 0.582339 11.2615L0.233256 11.2613C0.125702 11.2613 0.0347359 11.3314 0.00732674 11.4356C-0.0196728 11.5382 0.0300596 11.6464 0.121776 11.6998C1.38355 12.4341 2.82279 12.8222 4.28452 12.8222C5.56401 12.8222 6.76087 12.5682 7.84187 12.0675C8.83287 11.6084 9.7086 10.9522 10.4447 10.1171C11.1305 9.33912 11.6667 8.44104 12.0385 7.44782C12.3929 6.50106 12.5802 5.49085 12.5802 4.52637V4.48043C12.5802 4.32557 12.6502 4.17985 12.7724 4.08066C13.2361 3.70417 13.6399 3.26098 13.9725 2.76342C14.0604 2.63204 13.9219 2.46738 13.7773 2.53148Z" fill="#76A9EA"/>
</g>
<defs>
<clipPath id="clip0">
<rect width="14" height="14" fill="white"/>
</clipPath>
</defs>
</svg>
