<svg width="13" height="14" viewBox="0 0 13 14" fill="none" xmlns="http://www.w3.org/2000/svg">
<path d="M10.4065 0.40625H1.96895C1.02082 0.40625 0.250198 1.17687 0.250198 2.125V12.2812C0.250198 13.2294 1.02082 14 1.96895 14H10.4065C11.3546 14 12.1252 13.2294 12.1252 12.2812V2.125C12.1252 1.17687 11.3546 0.40625 10.4065 0.40625ZM3.3752 4H6.5002C6.8452 4 7.1252 4.28 7.1252 4.625C7.1252 4.97 6.8452 5.25 6.5002 5.25H3.3752C3.0302 5.25 2.7502 4.97 2.7502 4.625C2.7502 4.28 3.0302 4 3.3752 4ZM9.6252 10.25H3.3752C3.0302 10.25 2.7502 9.97 2.7502 9.625C2.7502 9.28 3.0302 9 3.3752 9H9.6252C9.9702 9 10.2502 9.28 10.2502 9.625C10.2502 9.97 9.9702 10.25 9.6252 10.25ZM9.6252 7.75H3.3752C3.0302 7.75 2.7502 7.47 2.7502 7.125C2.7502 6.78 3.0302 6.5 3.3752 6.5H9.6252C9.9702 6.5 10.2502 6.78 10.2502 7.125C10.2502 7.47 9.9702 7.75 9.6252 7.75Z" fill="url(#paint0_linear)"/>
<defs>
<linearGradient id="paint0_linear" x1="4.85693e-07" y1="14" x2="9.65774" y2="-3.72757" gradientUnits="userSpaceOnUse">
<stop stop-color="#BD4AE6"/>
<stop offset="1" stop-color="#DD2EB9"/>
</linearGradient>
</defs>
</svg>
