<svg width="16" height="16" viewBox="0 0 16 16" fill="none" xmlns="http://www.w3.org/2000/svg">
<path d="M14.6421 1.32018C13.7908 0.468828 12.6589 0 11.4549 0C10.2509 0 9.11905 0.468828 8.26773 1.32018C7.53901 2.04886 7.09256 2.97414 6.97662 3.99594C6.86878 4.94626 7.06834 5.91621 7.53939 6.74155L0.0376434 14.2433L1.71905 15.9247L2.59756 15.0462L3.55144 16L5.12313 14.4283L4.16925 13.4745L5.34642 12.2973L6.3003 13.2512L7.87198 11.6795L6.91811 10.7256L9.22076 8.42296C10.0461 8.89397 11.0159 9.09347 11.9664 8.98572C12.9882 8.86975 13.9134 8.4233 14.6421 7.69461C15.4935 6.84326 15.9623 5.71136 15.9623 4.50741C15.9623 3.30342 15.4935 2.17149 14.6421 1.32018ZM13.5152 4.69619C13.2052 5.00622 12.7979 5.16126 12.3906 5.16126C11.9834 5.16126 11.5762 5.00622 11.2661 4.69619C10.646 4.07609 10.646 3.06717 11.2661 2.44708C11.8862 1.82698 12.8951 1.82698 13.5152 2.44708C14.1353 3.06717 14.1353 4.07612 13.5152 4.69619Z" fill="url(#paint0_linear)"/>
<defs>
<linearGradient id="paint0_linear" x1="-0.297879" y1="16" x2="10.2326" y2="-6.02308" gradientUnits="userSpaceOnUse">
<stop stop-color="#BD4AE6"/>
<stop offset="1" stop-color="#DD2EB9"/>
</linearGradient>
</defs>
</svg>
