<svg width="16" height="16" viewBox="0 0 16 16" fill="none" xmlns="http://www.w3.org/2000/svg">
<g clip-path="url(#clip0)">
<path d="M12.3906 2.92041C12.2238 2.92041 12.0569 2.98393 11.9299 3.11094C11.6759 3.36495 11.6759 3.77833 11.9299 4.03234C12.1839 4.28635 12.5973 4.28635 12.8513 4.03234C13.1053 3.77833 13.1053 3.36495 12.8513 3.11094C12.7243 2.9839 12.5574 2.92041 12.3906 2.92041Z" fill="url(#paint0_linear)"/>
<path d="M14.6421 1.32018C13.7908 0.468828 12.6589 0 11.4549 0C10.2509 0 9.119 0.468828 8.26768 1.32018C7.53897 2.04886 7.09252 2.97414 6.97658 3.99594C6.86873 4.94626 7.06829 5.91621 7.53934 6.74155L0.0375977 14.2433L1.71901 15.9247L2.59752 15.0462L3.5514 16L5.12309 14.4283L4.16921 13.4745L5.34637 12.2973L6.30025 13.2512L7.87194 11.6795L6.91806 10.7256L9.22072 8.42296C10.0461 8.89397 11.0159 9.09347 11.9664 8.98572C12.9882 8.86975 13.9134 8.4233 14.6421 7.69461C15.4935 6.84326 15.9623 5.71136 15.9623 4.50741C15.9623 3.30342 15.4934 2.17149 14.6421 1.32018ZM13.5152 4.69619C13.2051 5.00622 12.7978 5.16126 12.3906 5.16126C11.9834 5.16126 11.5761 5.00622 11.266 4.69619C10.646 4.07609 10.646 3.06717 11.266 2.44708C11.8861 1.82698 12.8951 1.82698 13.5152 2.44708C14.1352 3.06717 14.1352 4.07612 13.5152 4.69619Z" fill="url(#paint1_linear)"/>
</g>
<defs>
<linearGradient id="paint0_linear" x1="13.3571" y1="2.68986" x2="12.8197" y2="4.5025" gradientUnits="userSpaceOnUse">
<stop offset="0.0001" stop-color="#BFBCFF"/>
<stop offset="1" stop-color="#7E79FF"/>
</linearGradient>
<linearGradient id="paint1_linear" x1="19.8174" y1="-2.83219" x2="13.1899" y2="19.4184" gradientUnits="userSpaceOnUse">
<stop offset="0.0001" stop-color="#BFBCFF"/>
<stop offset="1" stop-color="#7E79FF"/>
</linearGradient>
<clipPath id="clip0">
<rect width="16" height="16" fill="white"/>
</clipPath>
</defs>
</svg>
