<svg width="15" height="15" viewBox="0 0 15 15" fill="none" xmlns="http://www.w3.org/2000/svg">
<g clip-path="url(#clip0)">
<path d="M4.21899 3.43749C3.87399 3.43749 3.59399 3.15749 3.59399 2.81249V0.624992C3.59399 0.279992 3.87399 -7.62939e-06 4.21899 -7.62939e-06C4.56399 -7.62939e-06 4.84399 0.279992 4.84399 0.624992V2.81249C4.84399 3.15749 4.56399 3.43749 4.21899 3.43749Z" fill="url(#paint0_linear)"/>
<path d="M7.18751 3.43749C6.8425 3.43749 6.5625 3.15749 6.5625 2.81249V0.624992C6.5625 0.279992 6.8425 -7.62939e-06 7.18751 -7.62939e-06C7.53251 -7.62939e-06 7.81251 0.279992 7.81251 0.624992V2.81249C7.81251 3.15749 7.53251 3.43749 7.18751 3.43749Z" fill="url(#paint1_linear)"/>
<path d="M10.156 3.43749C9.81101 3.43749 9.53101 3.15749 9.53101 2.81249V0.624992C9.53101 0.279992 9.81101 -7.62939e-06 10.156 -7.62939e-06C10.501 -7.62939e-06 10.781 0.279992 10.781 0.624992V2.81249C10.781 3.15749 10.501 3.43749 10.156 3.43749Z" fill="url(#paint2_linear)"/>
<path d="M11.4065 1.40624H2.96899C2.02087 1.40624 1.25024 2.17687 1.25024 3.12499V13.2812C1.25024 14.2294 2.02087 15 2.96899 15H11.4065C12.3546 15 13.1252 14.2294 13.1252 13.2812V3.12499C13.1252 2.17687 12.3546 1.40624 11.4065 1.40624ZM4.37524 4.99999H7.50025C7.84525 4.99999 8.12525 5.27999 8.12525 5.62499C8.12525 5.96999 7.84525 6.24999 7.50025 6.24999H4.37524C4.03024 6.24999 3.75024 5.96999 3.75024 5.62499C3.75024 5.27999 4.03024 4.99999 4.37524 4.99999ZM10.6252 11.25H4.37524C4.03024 11.25 3.75024 10.97 3.75024 10.625C3.75024 10.28 4.03024 9.99999 4.37524 9.99999H10.6252C10.9702 9.99999 11.2502 10.28 11.2502 10.625C11.2502 10.97 10.9702 11.25 10.6252 11.25ZM10.6252 8.74999H4.37524C4.03024 8.74999 3.75024 8.46999 3.75024 8.12499C3.75024 7.77999 4.03024 7.49999 4.37524 7.49999H10.6252C10.9702 7.49999 11.2502 7.77999 11.2502 8.12499C11.2502 8.46999 10.9702 8.74999 10.6252 8.74999Z" fill="url(#paint3_linear)"/>
</g>
<defs>
<linearGradient id="paint0_linear" x1="5.14659" y1="-0.608485" x2="2.59769" y2="2.51799" gradientUnits="userSpaceOnUse">
<stop offset="0.0001" stop-color="#BFBCFF"/>
<stop offset="1" stop-color="#7E79FF"/>
</linearGradient>
<linearGradient id="paint1_linear" x1="8.11512" y1="-0.608485" x2="5.56623" y2="2.51803" gradientUnits="userSpaceOnUse">
<stop offset="0.0001" stop-color="#BFBCFF"/>
<stop offset="1" stop-color="#7E79FF"/>
</linearGradient>
<linearGradient id="paint2_linear" x1="11.0836" y1="-0.608485" x2="8.53473" y2="2.51802" gradientUnits="userSpaceOnUse">
<stop offset="0.0001" stop-color="#BFBCFF"/>
<stop offset="1" stop-color="#7E79FF"/>
</linearGradient>
<linearGradient id="paint3_linear" x1="16" y1="-1.00001" x2="9.73669" y2="17.4559" gradientUnits="userSpaceOnUse">
<stop offset="0.0001" stop-color="#BFBCFF"/>
<stop offset="1" stop-color="#7E79FF"/>
</linearGradient>
<clipPath id="clip0">
<rect width="15" height="15" fill="white"/>
</clipPath>
</defs>
</svg>
