<svg width="16" height="16" viewBox="0 0 16 16" fill="none" xmlns="http://www.w3.org/2000/svg">
<g clip-path="url(#clip0)">
<path d="M13.2867 13.9933C11.8733 15.2466 10.0267 16 8 16C3.58667 16 0 12.4133 0 7.99996C0 3.75329 3.32 0.273292 7.5 0.0199585V3.36663C5.16 3.61329 3.33333 5.59996 3.33333 7.99996C3.33333 10.5733 5.42667 12.6666 8 12.6666C9.10667 12.6666 10.1267 12.28 10.9267 11.6333L13.2867 13.9933Z" fill="url(#paint0_linear)"/>
<path d="M15.98 8.5C15.8733 10.3267 15.1466 11.9933 13.9933 13.2867L11.6333 10.9267C12.18 10.2533 12.54 9.41333 12.6333 8.5H15.98Z" fill="url(#paint1_linear)"/>
<path d="M15.98 7.49996H12.6333C12.4067 5.32663 10.6733 3.59329 8.5 3.36663V0.0199585C12.5133 0.259959 15.74 3.48663 15.98 7.49996Z" fill="url(#paint2_linear)"/>
</g>
<defs>
<linearGradient id="paint0_linear" x1="16.5032" y1="-2.80869" x2="8.8496" y2="18.6567" gradientUnits="userSpaceOnUse">
<stop offset="0.0001" stop-color="#BFBCFF"/>
<stop offset="1" stop-color="#7E79FF"/>
</linearGradient>
<linearGradient id="paint1_linear" x1="17.0322" y1="7.6527" x2="14.8941" y2="14.2019" gradientUnits="userSpaceOnUse">
<stop offset="0.0001" stop-color="#BFBCFF"/>
<stop offset="1" stop-color="#7E79FF"/>
</linearGradient>
<linearGradient id="paint2_linear" x1="17.7908" y1="-1.30409" x2="14.7046" y2="9.106" gradientUnits="userSpaceOnUse">
<stop offset="0.0001" stop-color="#BFBCFF"/>
<stop offset="1" stop-color="#7E79FF"/>
</linearGradient>
<clipPath id="clip0">
<rect width="16" height="16" fill="white"/>
</clipPath>
</defs>
</svg>
