<svg width="14" height="14" viewBox="0 0 14 14" fill="none" xmlns="http://www.w3.org/2000/svg">
<path d="M6.12653 5.41943L0.323818 11.2221C0.107979 11.4379 0 11.6964 0 11.9975C0 12.3043 0.107949 12.5599 0.323818 12.7645L1.22699 13.6848C1.44862 13.895 1.70708 14 2.00239 14C2.3035 14 2.55912 13.895 2.76932 13.6848L8.58041 7.87353C8.02389 7.6519 7.53118 7.32671 7.10213 6.89787C6.67332 6.46893 6.34815 5.97613 6.12653 5.41943ZM2.93126 11.8356C2.82319 11.9435 2.69539 11.9975 2.54775 11.9975C2.40005 11.9975 2.27225 11.9435 2.16433 11.8356C2.05638 11.7277 2.00239 11.5999 2.00239 11.4522C2.00239 11.3047 2.05638 11.1767 2.16433 11.0686C2.27225 10.9608 2.39996 10.9068 2.54775 10.9068C2.69548 10.9068 2.82331 10.9608 2.93126 11.0686C3.03915 11.1767 3.09314 11.3046 3.09314 11.4522C3.09314 11.5999 3.03915 11.7277 2.93126 11.8356Z" fill="url(#paint0_linear)"/>
<path d="M13.9105 3.95378C13.8622 3.89689 13.7954 3.86854 13.7103 3.86854C13.6592 3.86854 13.459 3.96945 13.1096 4.17111C12.7602 4.37271 12.3753 4.60273 11.955 4.86125C11.5345 5.11979 11.3101 5.25753 11.2818 5.2746L9.63717 4.36283V2.45413L12.1337 1.01398C12.2246 0.951519 12.2701 0.871982 12.2701 0.775403C12.2701 0.678885 12.2246 0.599378 12.1337 0.536882C11.8837 0.366407 11.5783 0.234313 11.2178 0.1406C10.8571 0.0468865 10.5119 0 10.1825 0C9.1316 0 8.23264 0.3736 7.48574 1.12056C6.73857 1.86746 6.36523 2.76648 6.36523 3.81736C6.36523 4.86826 6.73877 5.76725 7.48574 6.51421C8.23264 7.26111 9.1316 7.63471 10.1825 7.63471C10.9835 7.63471 11.7178 7.39736 12.3852 6.92315C13.0525 6.44882 13.52 5.83106 13.7869 5.06986C13.9175 4.68931 13.9828 4.38817 13.9828 4.16669C13.983 4.08169 13.9587 4.01066 13.9105 3.95378Z" fill="url(#paint1_linear)"/>
<defs>
<linearGradient id="paint0_linear" x1="10.6576" y1="3.90058" x2="7.11731" y2="15.8423" gradientUnits="userSpaceOnUse">
<stop offset="0.0001" stop-color="#BFBCFF"/>
<stop offset="1" stop-color="#7E79FF"/>
</linearGradient>
<linearGradient id="paint1_linear" x1="15.8269" y1="-1.35143" x2="12.6709" y2="9.2701" gradientUnits="userSpaceOnUse">
<stop offset="0.0001" stop-color="#BFBCFF"/>
<stop offset="1" stop-color="#7E79FF"/>
</linearGradient>
</defs>
</svg>
