<svg width="15" height="15" viewBox="0 0 15 15" fill="none" xmlns="http://www.w3.org/2000/svg">
<g clip-path="url(#clip0)">
<path d="M4.21899 3.4375C3.87399 3.4375 3.59399 3.1575 3.59399 2.8125V0.625C3.59399 0.28 3.87399 0 4.21899 0C4.56399 0 4.84399 0.28 4.84399 0.625V2.8125C4.84399 3.1575 4.56399 3.4375 4.21899 3.4375Z" fill="url(#paint0_linear)"/>
<path d="M7.18751 3.4375C6.8425 3.4375 6.5625 3.1575 6.5625 2.8125V0.625C6.5625 0.28 6.8425 0 7.18751 0C7.53251 0 7.81251 0.28 7.81251 0.625V2.8125C7.81251 3.1575 7.53251 3.4375 7.18751 3.4375Z" fill="url(#paint1_linear)"/>
<path d="M10.156 3.4375C9.81101 3.4375 9.53101 3.1575 9.53101 2.8125V0.625C9.53101 0.28 9.81101 0 10.156 0C10.501 0 10.781 0.28 10.781 0.625V2.8125C10.781 3.1575 10.501 3.4375 10.156 3.4375Z" fill="url(#paint2_linear)"/>
<path d="M11.4065 1.40625H2.96899C2.02087 1.40625 1.25024 2.17687 1.25024 3.125V13.2812C1.25024 14.2294 2.02087 15 2.96899 15H11.4065C12.3546 15 13.1252 14.2294 13.1252 13.2812V3.125C13.1252 2.17687 12.3546 1.40625 11.4065 1.40625ZM4.37524 5H7.50025C7.84525 5 8.12525 5.28 8.12525 5.625C8.12525 5.97 7.84525 6.25 7.50025 6.25H4.37524C4.03024 6.25 3.75024 5.97 3.75024 5.625C3.75024 5.28 4.03024 5 4.37524 5ZM10.6252 11.25H4.37524C4.03024 11.25 3.75024 10.97 3.75024 10.625C3.75024 10.28 4.03024 10 4.37524 10H10.6252C10.9702 10 11.2502 10.28 11.2502 10.625C11.2502 10.97 10.9702 11.25 10.6252 11.25ZM10.6252 8.75H4.37524C4.03024 8.75 3.75024 8.47 3.75024 8.125C3.75024 7.78 4.03024 7.5 4.37524 7.5H10.6252C10.9702 7.5 11.2502 7.78 11.2502 8.125C11.2502 8.47 10.9702 8.75 10.6252 8.75Z" fill="url(#paint3_linear)"/>
</g>
<defs>
<linearGradient id="paint0_linear" x1="3.68746" y1="-0.115304" x2="5.0114" y2="0.159234" gradientUnits="userSpaceOnUse">
<stop offset="0.0001" stop-color="#28C69F"/>
<stop offset="0.847284" stop-color="#00AA81"/>
</linearGradient>
<linearGradient id="paint1_linear" x1="6.65597" y1="-0.115304" x2="7.97993" y2="0.159242" gradientUnits="userSpaceOnUse">
<stop offset="0.0001" stop-color="#28C69F"/>
<stop offset="0.847284" stop-color="#00AA81"/>
</linearGradient>
<linearGradient id="paint2_linear" x1="9.62448" y1="-0.115304" x2="10.9484" y2="0.159241" gradientUnits="userSpaceOnUse">
<stop offset="0.0001" stop-color="#28C69F"/>
<stop offset="0.847284" stop-color="#00AA81"/>
</linearGradient>
<linearGradient id="paint3_linear" x1="2.13822" y1="0.950275" x2="12.6483" y2="6.18594" gradientUnits="userSpaceOnUse">
<stop offset="0.0001" stop-color="#28C69F"/>
<stop offset="0.847284" stop-color="#00AA81"/>
</linearGradient>
<clipPath id="clip0">
<rect width="15" height="15" fill="white"/>
</clipPath>
</defs>
</svg>
